<svg id="Layer_1" data-name="Layer 1" xmlns="http://www.w3.org/2000/svg" xmlns:xlink="http://www.w3.org/1999/xlink" viewBox="0 0 1920 1080"><defs><style>.cls-1{fill:#fff;}.cls-2{fill:url(#linear-gradient);}</style><linearGradient id="linear-gradient" x1="825.56" y1="550.42" x2="1037.98" y2="675.02" gradientUnits="userSpaceOnUse"><stop offset="0" stop-color="#5949fe"/><stop offset="0.27" stop-color="#7235b9"/><stop offset="1" stop-color="#b40000"/></linearGradient></defs><path class="cls-1" d="M1180.19,733.28h-75.63a21,21,0,0,1-18.2-10.55l-174.91-305a21,21,0,0,1-.09-20.71l36.88-65.7a21,21,0,0,1,36.48-.21l213.65,370.71A21,21,0,0,1,1180.19,733.28Z"/><circle class="cls-1" cx="837.62" cy="662.3" r="70.98"/><path class="cls-2" d="M914.72,508.69c-26.18-4.69-57.19-1.2-77.1,14.12L962.55,733.28c24.68-12.34,47.18-47.08,51.9-79.24C1024.61,584.77,980.11,520.39,914.72,508.69Z"/></svg>